<svg width="835" height="255" viewBox="0 0 835 255" fill="none" xmlns="http://www.w3.org/2000/svg">
<path d="M80.8508 78.5618C81.0248 77.9738 81.3926 77.9173 80.9686 78.5834C74.8357 88.2181 69.3966 98.4731 63.8425 108.534C52.0911 129.821 40.5804 151.244 28.1391 172.028C21.8207 182.584 15.9276 193.425 10.2026 204.403C9.08707 206.542 12.9202 200.46 14.5712 198.844C31.7433 182.031 51.4658 168.274 69.9725 153.693C94.1249 134.664 118.243 115.566 142.535 96.7898C167.139 77.7715 192.254 56.4862 219.175 42.2084C228.77 37.1197 238.902 33.9001 248.849 37.2224C252.57 38.4652 255.141 40.7051 258.294 42.9602" stroke="white" stroke-width="20" stroke-linecap="round"/>
<path d="M132.438 149.268C131.95 149.24 131.361 149.736 131.014 150.055C127.759 153.05 125.482 157.315 123.117 160.989C117.232 170.134 110.81 178.929 104.942 188.087C104.662 188.524 98.075 199.198 102.479 197.78C104.99 196.971 107.171 194.416 108.935 192.674C112.439 189.216 115.847 185.732 119.565 182.498C124.39 178.3 129.1 173.96 134.376 170.312C144.054 163.619 179.497 146.426 189.276 139.846C192.867 137.43 163.469 153.946 167.244 151.828C201.105 133.617 215.44 122.583 184.03 142.7C182.092 143.821 163.549 153.449 162.495 154.211C154.721 159.831 178.562 146.307 172.621 154.041C169.9 157.582 167.76 164.33 167.887 169.014C168.164 179.212 190.094 170.146 194.558 168.868C196.656 168.267 200.152 168.096 211.086 165.148C217.977 162.272 221.188 160.739 226.442 155.667C230.948 151.317 231.01 151.507 233.827 148.955C245.661 138.236 247.85 134.743 257.437 125.812C264.455 119.275 274.22 110.927 280.579 103.748C284.838 98.9401 287.082 92.6844 292.07 88.5723C292.291 88.3902 294.198 86.8773 294.028 87.2033C292.342 90.4332 289.335 93.1106 286.788 95.6504C275.652 106.755 265.345 118.904 253.578 129.339C245.779 136.255 241.191 142.115 232.028 150.652C228.973 154.945 223.489 158.835 221.763 163.794C221.405 164.822 221.26 165.913 221.064 166.981C220.848 168.159 224.253 165.86 224.614 165.621C229.111 162.642 241.116 158.561 245.722 155.757C251.055 152.51 257.358 151.563 262.591 148.168C266.752 145.468 270.836 143.498 275.456 141.774C279.741 140.175 283.597 137.628 287.745 135.728C294.67 132.555 302.414 129.641 308.753 125.417C309.097 125.188 309.562 124.906 308.819 125.061C306.496 125.544 304.187 126.253 301.983 127.121C295.524 129.666 288.702 133.545 283.963 138.661C280.719 142.164 276.55 148.98 278.564 153.964C281.421 161.032 292.654 156.961 297.241 154.646C303.395 151.539 309.679 146.516 312.157 139.872C313.234 136.983 312.928 133.834 313.991 130.97C314.559 129.441 314.377 128.13 315.947 127.135C317.819 125.949 320.964 126.446 323.003 126.504C327.709 126.638 332.406 126.556 337.109 126.828C344.149 127.235 354.836 126.562 357.06 134.97C358.11 138.938 358.202 143.178 358.705 147.231C358.948 149.191 359.418 151.339 359.151 153.321C358.911 155.101 361.126 152.603 361.514 152.225C365.844 148.003 369.187 142.876 373.414 138.541C377.48 134.372 382.266 130.424 387.797 128.373C393.094 126.409 398.876 127.367 404.114 129.046C410.397 131.06 417.077 132.814 423.127 135.486C425.149 136.379 430.218 137.387 430.819 139.449" stroke="white" stroke-width="20" stroke-linecap="round"/>
<path d="M145.525 126.694C145.568 126.46 145.703 125.729 145.727 125.599" stroke="white" stroke-width="20" stroke-linecap="round"/>
<path d="M235.108 113.705C245.325 112.645 255.672 112.888 266.313 111.529C268.855 111.805 273.548 110.088 275.663 108.698" stroke="white" stroke-width="20" stroke-linecap="round"/>
<path d="M530.924 55.9298C522.279 91.0756 492.911 144.268 476.202 176.018C475.707 176.959 486.148 170.653 487.346 170.016C502.143 162.145 519.306 157.056 535.713 152.297C546.34 149.214 556.767 145.802 567.686 143.503C570.355 142.942 573.341 142.918 575.355 141.706" stroke="white" stroke-width="20" stroke-linecap="round"/>
<path d="M615.725 138.678C628.734 145.074 651.97 145.611 662.466 136.931C665.163 134.7 672.708 125.598 667.038 123.738C654.604 119.659 641.197 120.716 628.522 122.914C623.076 123.859 598.63 141.921 602.386 154.612C604.216 160.795 610.759 165.718 621.414 167.675C630.929 169.422 649.755 167.89 659.222 166.296C675.179 163.611 689.5 156.359 705.994 153.831C711.991 152.912 720.693 151.922 730.131 149.359C736.03 147.757 741.684 140.936 742.564 136.143C743.444 131.351 737.563 130.122 732.987 129.282C723.924 127.617 713.543 126.814 704.736 129.387C698.639 131.167 689.86 134.982 688.62 141.734C686.679 152.299 707.039 170.355 724.423 172.499C771.657 178.324 776.805 179.179 824.308 179.684" stroke="white" stroke-width="20" stroke-linecap="round"/>
</svg>
